<svg xmlns="http://www.w3.org/2000/svg" width="83.037" height="58.957" viewBox="0 0 83.037 58.957">
  <g id="maki1" transform="translate(-840 -640)" opacity="0.996">
    <path id="Union_3" data-name="Union 3" d="M.021,46.5H0V13.286H.021A4.092,4.092,0,0,1,0,12.871C0,5.763,18.588,0,41.519,0S83.037,5.763,83.037,12.871a4.092,4.092,0,0,1-.021.416h.021V46.5h-.021C82.309,53.417,64,58.957,41.519,58.957S.728,53.417.021,46.5Z" transform="translate(840 640)" fill="#151515"/>
    <ellipse id="Ellipse_10" data-name="Ellipse 10" cx="34.876" cy="7.058" rx="34.876" ry="7.058" transform="translate(846.643 644.152)" fill="#fff"/>
    <ellipse id="Ellipse_9" data-name="Ellipse 9" cx="12.456" cy="2.491" rx="12.456" ry="2.491" transform="translate(869.063 649.134)" fill="#ff7979"/>
  </g>
</svg>
