<svg xmlns="http://www.w3.org/2000/svg" width="95.205" height="92.421" viewBox="0 0 95.205 92.421">
  <g id="maki3" transform="translate(-912.765 -611.327)" opacity="0.996">
    <path id="Union_4" data-name="Union 4" d="M.02,43.614H0V12.461H.02a3.838,3.838,0,0,1-.02-.39C0,5.4,17.434,0,38.941,0S77.882,5.4,77.882,12.072a3.836,3.836,0,0,1-.02.39h.02V43.614h-.02C77.2,50.1,60.028,55.3,38.941,55.3S.683,50.1.02,43.614Z" transform="translate(948.309 611.327) rotate(40)" fill="#151515"/>
    <ellipse id="Ellipse_16" data-name="Ellipse 16" cx="32.711" cy="6.62" rx="32.711" ry="6.62" transform="translate(949.882 618.057) rotate(40)" fill="#fff"/>
    <ellipse id="Ellipse_15" data-name="Ellipse 15" cx="11.682" cy="2.336" rx="11.682" ry="2.336" transform="translate(963.237 635.245) rotate(40)" fill="#ff7979"/>
  </g>
</svg>
